<?xml version="1.0" standalone="no"?>
<!DOCTYPE svg PUBLIC "-//W3C//DTD SVG 20010904//EN"
 "http://www.w3.org/TR/2001/REC-SVG-20010904/DTD/svg10.dtd">
<svg version="1.0" xmlns="http://www.w3.org/2000/svg"
 width="38.000000pt" height="34.000000pt" viewBox="0 0 38.000000 34.000000"
 preserveAspectRatio="xMidYMid meet">

<g transform="translate(0.000000,34.000000) scale(0.100000,-0.100000)"
fill="#000000" stroke="none">
<path d="M300 306 c-31 -38 9 -89 54 -68 45 20 30 82 -20 82 -12 0 -27 -7 -34
-14z"/>
<path d="M22 278 c4 -10 33 -13 111 -13 147 0 146 19 -1 23 -89 2 -113 0 -110
-10z"/>
<path d="M101 191 c-12 -12 -34 -21 -51 -21 -16 0 -30 -4 -30 -10 0 -5 14 -10
30 -10 17 0 39 -9 50 -20 24 -24 43 -25 64 -4 28 28 18 66 -21 78 -15 5 -28 1
-42 -13z"/>
<path d="M220 160 c0 -6 33 -10 80 -10 47 0 80 4 80 10 0 6 -33 10 -80 10 -47
0 -80 -4 -80 -10z"/>
<path d="M238 79 c-21 -12 -24 -49 -6 -67 17 -17 53 -15 68 3 7 8 28 15 47 15
44 0 40 24 -5 28 -17 2 -36 10 -42 18 -14 16 -38 18 -62 3z"/>
<path d="M27 54 c-18 -18 -1 -24 74 -24 60 0 80 3 77 13 -5 13 -139 23 -151
11z"/>
</g>
</svg>
