<svg width="30" height="30" viewBox="0 0 30 30" fill="none" xmlns="http://www.w3.org/2000/svg">
<g clip-path="url(#clip0_245_6466)">
<path d="M27.0075 6.80704H20.5464V4.20349C20.5464 2.96381 19.5378 1.95532 18.2981 1.95532H11.7014C10.4617 1.95532 9.45317 2.96381 9.45317 4.20349V6.80704H2.99199C1.34605 6.80704 0.0069321 8.14615 0.0069321 9.79209C0.0069321 11.2872 -0.146183 12.6299 0.986797 14.1398C1.62782 14.9941 2.50872 15.6036 3.53423 15.9021L13.4926 18.8015C14.4785 19.0885 15.5208 19.0887 16.5068 18.8015L26.4652 15.9021C27.4907 15.6035 28.3716 14.9941 29.0126 14.1398C30.1507 12.6231 29.9925 11.2666 29.9925 9.79209C29.9925 8.14615 28.6535 6.80704 27.0075 6.80704ZM11.3574 4.20349C11.3574 4.01383 11.5117 3.85959 11.7014 3.85959H18.2981C18.4878 3.85959 18.6421 4.01389 18.6421 4.20349V6.80704H11.3574V4.20349Z" fill="#949494"/>
<path d="M26.9977 17.7304C16.2564 20.8578 16.3954 20.9211 14.9998 20.9211C13.6143 20.9211 13.943 20.9159 3.00208 17.7305C1.84851 17.3945 0.826867 16.7754 0.00708008 15.9219V25.0597C0.00708008 26.7057 1.34614 28.0447 2.99214 28.0447H27.0076C28.6536 28.0447 29.9927 26.7057 29.9927 25.0597V15.9219C29.1728 16.7753 28.1512 17.3945 26.9977 17.7304Z" fill="#949494"/>
</g>
<defs>
<clipPath id="clip0_245_6466">
<rect width="30" height="30" fill="white"/>
</clipPath>
</defs>
</svg>
