<svg width="29" height="28" viewBox="0 0 29 28" fill="none" xmlns="http://www.w3.org/2000/svg">
<path d="M14.5 7.5V18.55V7.5ZM14.5 20.5V23.1V20.5ZM27.3703 24.0339C27.7513 24.6579 27.7523 25.4436 27.3628 26.0624C26.9981 26.6418 26.3528 26.9805 25.6687 26.9522C23.4899 26.8618 18.5013 26.675 14.5 26.675C10.4987 26.675 5.51009 26.8618 3.3313 26.9522C2.64723 26.9805 2.00185 26.6418 1.63716 26.0624C1.24774 25.4436 1.24874 24.6579 1.6297 24.0339C6.52163 16.0211 11.2798 5.52075 12.7843 2.11685C13.0853 1.4358 13.7554 1 14.5 1C15.2446 1 15.9147 1.43581 16.2157 2.11685C17.7202 5.52075 22.4784 16.0211 27.3703 24.0339Z" fill="#949494"/>
<path d="M14.5 7.5V18.55M14.5 20.5V23.1M14.5 26.675C18.5013 26.675 23.4899 26.8618 25.6687 26.9522C26.3528 26.9805 26.9981 26.6418 27.3628 26.0624V26.0624C27.7523 25.4436 27.7513 24.6579 27.3703 24.0339C22.4784 16.0211 17.7202 5.52075 16.2157 2.11685C15.9147 1.43581 15.2446 1 14.5 1V1C13.7554 1 13.0853 1.4358 12.7843 2.11685C11.2798 5.52075 6.52163 16.0211 1.6297 24.0339C1.24874 24.6579 1.24774 25.4436 1.63716 26.0624V26.0624C2.00185 26.6418 2.64723 26.9805 3.3313 26.9522C5.51009 26.8618 10.4987 26.675 14.5 26.675Z" stroke="white" stroke-width="2"/>
</svg>
