<svg width="31" height="33" viewBox="0 0 31 33" fill="none" xmlns="http://www.w3.org/2000/svg">
<path d="M30 13.4V21.15C30 28.9 27.1 32 19.85 32H11.15C3.9 32 1 28.9 1 21.15V11.85C1 4.1 3.9 1 11.15 1H18.4" fill="#949494"/>
<path d="M30 13.4V21.15C30 28.9 27.1 32 19.85 32H11.15C3.9 32 1 28.9 1 21.15V11.85C1 4.1 3.9 1 11.15 1H18.4" stroke="white" stroke-width="2" stroke-linecap="round" stroke-linejoin="round"/>
<path d="M29.9999 13.4H24.1999C19.8499 13.4 18.3999 11.85 18.3999 7.2V1L29.9999 13.4Z" fill="#949494" stroke="white" stroke-width="2" stroke-linecap="round" stroke-linejoin="round"/>
<path d="M8.25 18.05H16.95" stroke="white" stroke-width="2" stroke-linecap="round" stroke-linejoin="round"/>
<path d="M8.25 24.25H14.05" stroke="white" stroke-width="2" stroke-linecap="round" stroke-linejoin="round"/>
</svg>
