<svg width="30" height="30" viewBox="0 0 30 30" fill="none" xmlns="http://www.w3.org/2000/svg">
<g clip-path="url(#clip0_85_7532)">
<path d="M11.5624 0H2.18742C0.981216 0 0 0.981216 0 2.18742V7.81242C0 9.01886 0.981216 10.0001 2.18742 10.0001H11.5624C12.7689 10.0001 13.7501 9.01886 13.7501 7.81242V2.18742C13.7501 0.981216 12.7689 0 11.5624 0Z" fill="#949494"/>
<path d="M11.5624 12.4999H2.18742C0.981216 12.4999 0 13.4812 0 14.6876V27.8126C0 29.0188 0.981216 30 2.18742 30H11.5624C12.7689 30 13.7501 29.0188 13.7501 27.8126V14.6876C13.7501 13.4812 12.7689 12.4999 11.5624 12.4999Z" fill="#949494"/>
<path d="M27.8127 19.9999H18.4377C17.2312 19.9999 16.25 20.9812 16.25 22.1876V27.8126C16.25 29.0188 17.2312 30 18.4377 30H27.8127C29.0189 30 30.0001 29.0188 30.0001 27.8126V22.1876C30.0001 20.9812 29.0189 19.9999 27.8127 19.9999Z" fill="#949494"/>
<path d="M27.8127 0H18.4377C17.2312 0 16.25 0.981216 16.25 2.18742V15.3124C16.25 16.5189 17.2312 17.5001 18.4377 17.5001H27.8127C29.0189 17.5001 30.0001 16.5189 30.0001 15.3124V2.18742C30.0001 0.981216 29.0189 0 27.8127 0Z" fill="#949494"/>
</g>
<defs>
<clipPath id="clip0_85_7532">
<rect width="30" height="30" fill="white"/>
</clipPath>
</defs>
</svg>
