<svg width="30" height="30" viewBox="0 0 30 30" fill="none" xmlns="http://www.w3.org/2000/svg">
<g clip-path="url(#clip0_245_6470)">
<path d="M16.0764 23.9125C16.0764 23.4177 16.123 22.9337 16.2111 22.4641H4.64455C4.15916 22.4641 3.76564 22.0706 3.76564 21.5852C3.76564 21.0998 4.15916 20.7063 4.64455 20.7063H16.7624C17.1027 19.95 17.5594 19.2569 18.1096 18.6502C18.02 18.681 17.9243 18.6985 17.8243 18.6985H4.64455C3.48434 18.6575 3.47625 16.9851 4.64455 16.9407H17.8242C18.4161 16.9293 18.8574 17.5509 18.6548 18.105C19.7067 17.1509 21.018 16.4783 22.4688 16.2062V6.52269C22.4688 4.9621 21.1976 3.76099 19.707 3.76099H17.2454C17.1292 5.78798 15.4439 7.40159 13.3883 7.40159H9.08045C7.02486 7.40159 5.33959 5.78798 5.2234 3.76099H2.76176C1.27107 3.76099 0 4.96222 0 6.52269V27.2336C0 28.7909 1.26855 29.9953 2.76176 29.9953H18.9758C17.2079 28.5565 16.0764 26.3643 16.0764 23.9125ZM4.64455 9.40942H17.8243C18.3097 9.40942 18.7032 9.80294 18.7032 10.2883C18.7032 10.7737 18.3097 11.1672 17.8243 11.1672H4.64455C3.48369 11.1259 3.47678 9.45366 4.64455 9.40942ZM4.64455 13.1751H17.8243C18.3097 13.1751 18.7032 13.5686 18.7032 14.054C18.7032 14.5394 18.3097 14.9329 17.8243 14.9329H4.64455C3.48369 14.8916 3.47678 13.2192 4.64455 13.1751ZM9.35156 26.2298H4.64455C3.48123 26.1873 3.47912 24.5153 4.64455 24.4719H9.35156C9.83695 24.4719 10.2305 24.8655 10.2305 25.3509C10.2305 25.8362 9.83695 26.2298 9.35156 26.2298Z" fill="#949494"/>
<path d="M9.08036 5.64382H13.3882C16.2798 5.51427 16.1266 1.36009 13.2313 1.43134C12.5842 -0.471841 9.88362 -0.470669 9.23733 1.43134C6.3537 1.35482 6.17862 5.50707 9.08036 5.64382Z" fill="#949494"/>
<path d="M23.9171 17.8296C20.563 17.8296 17.8342 20.5584 17.8342 23.9124C18.14 31.9712 29.6954 31.969 30 23.9124C30 20.5584 27.2713 17.8296 23.9171 17.8296ZM26.3635 23.3172L23.9305 25.7502C23.5873 26.0935 23.0309 26.0935 22.6877 25.7504L21.4709 24.5341C20.678 23.6809 21.8593 22.4978 22.7136 23.2909L23.3089 23.8859L25.1207 22.0742C25.9744 21.2812 27.1566 22.4635 26.3635 23.3172Z" fill="#949494"/>
</g>
<defs>
<clipPath id="clip0_245_6470">
<rect width="30" height="30" fill="white"/>
</clipPath>
</defs>
</svg>
