<svg width="27" height="30" viewBox="0 0 27 30" fill="none" xmlns="http://www.w3.org/2000/svg">
<path d="M13.296 14.451C15.4376 14.451 17.2921 13.739 18.8074 12.3341C20.3227 10.9295 21.0908 9.21082 21.0908 7.22528C21.0908 5.24044 20.3227 3.52155 18.8072 2.11645C17.2917 0.712046 15.4374 0 13.296 0C11.1541 0 9.30009 0.712046 7.78484 2.11668C6.26959 3.52132 5.50122 5.24021 5.50122 7.22528C5.50122 9.21082 6.26959 10.9297 7.78509 12.3343C9.30059 13.7387 11.1548 14.451 13.296 14.451Z" fill="#949494"/>
<path d="M26.9346 23.0685C26.8909 22.4839 26.8025 21.8463 26.6724 21.1729C26.541 20.4945 26.3719 19.8532 26.1694 19.267C25.9603 18.6612 25.6759 18.0629 25.3243 17.4895C24.9593 16.8945 24.5307 16.3763 24.0497 15.9499C23.5468 15.5038 22.931 15.1451 22.2189 14.8835C21.5093 14.6233 20.7229 14.4914 19.8817 14.4914C19.5514 14.4914 19.2319 14.6171 18.6149 14.9895C18.2351 15.219 17.791 15.4845 17.2952 15.7782C16.8712 16.0286 16.2969 16.2632 15.5876 16.4756C14.8955 16.6832 14.1928 16.7885 13.4993 16.7885C12.8057 16.7885 12.1033 16.6832 11.4104 16.4756C10.7018 16.2634 10.1275 16.0288 9.70409 15.7784C9.213 15.4875 8.76857 15.222 8.38315 14.9893C7.76688 14.6169 7.44714 14.4912 7.11678 14.4912C6.27533 14.4912 5.48918 14.6233 4.77983 14.8837C4.06825 15.1449 3.45222 15.5035 2.94878 15.9501C2.46806 16.3767 2.03918 16.8947 1.67475 17.4895C1.32341 18.0629 1.03897 18.6609 0.829599 19.2672C0.627384 19.8534 0.458255 20.4945 0.326902 21.1729C0.196783 21.8454 0.108391 22.4832 0.064689 23.0692C0.0217276 23.6432 0 24.239 0 24.8407C0 26.4067 0.537017 27.6745 1.59599 28.6094C2.64188 29.5321 4.02578 30.0001 5.70868 30.0001H21.2913C22.9742 30.0001 24.3576 29.5323 25.4038 28.6094C26.463 27.6752 27 26.4072 27 24.8405C26.9998 24.236 26.9778 23.6398 26.9346 23.0685Z" fill="#949494"/>
</svg>
